# xmcd
#
# Track frame offsets: 
#        150
#        18742
#        60007
#        102592
#        121800
#        137100
#        152542
#        182560
#        200725
#        234840
#
# Disc length: 3592 seconds
#
# Revision: 3
# Processed by: cddbd v1.5.2PL0 Copyright (c) Steve Scherf et al.
# Submitted via: ExactAudioCopy v0.99pb5
#
DISCID=7c0e060a
DTITLE=Buddy Guy - Live At The Checkerboard Lounge, Chicago - 1979
DYEAR=1988
DGENRE=Blues
TTITLE0=Buddy's Blues (Part One)
TTITLE1=I've Got A Right To Love My Woman
TTITLE2=Tell Me What's Inside Of You
TTITLE3=Done Got Over You
TTITLE4=The Things I Used To Do
TTITLE5=You Don't Know How I Feel
TTITLE6=The Dollar Done Fell
TTITLE7=Buddy's Blues (Part Two)
TTITLE8=Don't Answer The Door
TTITLE9=Tell Me What's Inside Of You (Version Two)
EXTD=JSP CD 262\n\nBuddy Guy:  guitar and vocals\nPhil Guy:  guitar\nL
EXTD=ittle Phil Smith:  guitar\nJ.W. Williams:  bass\nRay Allison:  dr
EXTD=ums\nL.C. Thurston:  vocals on "Don't Answer The Door"\n\nSubmitt
EXTD=ed 6/12/97\n[Jmccoy@efn.org]
EXTT0=
EXTT1=
EXTT2=
EXTT3=
EXTT4=
EXTT5=
EXTT6=
EXTT7=
EXTT8=
EXTT9=
PLAYORDER=
